<?xml version="1.0" encoding="UTF-8" standalone="no"?>
<!-- Created with Inkscape (http://www.inkscape.org/) -->

<svg
   xmlns:dc="http://purl.org/dc/elements/1.1/"
   xmlns:cc="http://creativecommons.org/ns#"
   xmlns:rdf="http://www.w3.org/1999/02/22-rdf-syntax-ns#"
   xmlns:svg="http://www.w3.org/2000/svg"
   xmlns="http://www.w3.org/2000/svg"
   xmlns:sodipodi="http://sodipodi.sourceforge.net/DTD/sodipodi-0.dtd"
   xmlns:inkscape="http://www.inkscape.org/namespaces/inkscape"
   width="39.141502mm"
   height="39.141853mm"
   viewBox="0 0 39.141502 39.141853"
   version="1.1"
   id="svg1906"
   inkscape:version="0.92.3 (2405546, 2018-03-11)"
   sodipodi:docname="butterfly.svg">
  <defs
     id="defs1900">
    <clipPath
       clipPathUnits="userSpaceOnUse"
       id="clipPath324">
      <path
         d="M 40.4121,150.078 H 135.952 V 99.1514 H 40.4121 Z"
         id="path322"
         inkscape:connector-curvature="0" />
    </clipPath>
    <clipPath
       clipPathUnits="userSpaceOnUse"
       id="clipPath348">
      <path
         d="m 151.747,149.626 h 95.539 V 98.6953 h -95.539 z"
         id="path346"
         inkscape:connector-curvature="0" />
    </clipPath>
    <clipPath
       clipPathUnits="userSpaceOnUse"
       id="clipPath372">
      <path
         d="m 261.716,150.078 h 95.539 V 99.1514 h -95.539 z"
         id="path370"
         inkscape:connector-curvature="0" />
    </clipPath>
    <clipPath
       clipPathUnits="userSpaceOnUse"
       id="clipPath396">
      <path
         d="m 373.05,149.626 h 95.54 V 98.6953 h -95.54 z"
         id="path394"
         inkscape:connector-curvature="0" />
    </clipPath>
    <clipPath
       clipPathUnits="userSpaceOnUse"
       id="clipPath300">
      <path
         d="m 372.142,259.596 h 95.539 v -50.928 h -95.539 z"
         id="path298"
         inkscape:connector-curvature="0" />
    </clipPath>
    <clipPath
       clipPathUnits="userSpaceOnUse"
       id="clipPath276">
      <path
         d="m 260.812,260.048 h 95.535 v -50.927 h -95.535 z"
         id="path274"
         inkscape:connector-curvature="0" />
    </clipPath>
    <clipPath
       clipPathUnits="userSpaceOnUse"
       id="clipPath252">
      <path
         d="m 150.838,259.596 h 95.539 v -50.928 h -95.539 z"
         id="path250"
         inkscape:connector-curvature="0" />
    </clipPath>
    <clipPath
       clipPathUnits="userSpaceOnUse"
       id="clipPath228">
      <path
         d="M 39.5073,260.048 H 135.043 V 209.121 H 39.5073 Z"
         id="path226"
         inkscape:connector-curvature="0" />
    </clipPath>
    <clipPath
       clipPathUnits="userSpaceOnUse"
       id="clipPath204">
      <path
         d="m 376.228,368.354 h 95.536 v -50.926 h -95.536 z"
         id="path202"
         inkscape:connector-curvature="0" />
    </clipPath>
    <clipPath
       clipPathUnits="userSpaceOnUse"
       id="clipPath180">
      <path
         d="m 264.894,368.811 h 95.54 v -50.932 h -95.54 z"
         id="path178"
         inkscape:connector-curvature="0" />
    </clipPath>
    <clipPath
       clipPathUnits="userSpaceOnUse"
       id="clipPath156">
      <path
         d="M 154.925,368.354 H 250.46 V 317.428 H 154.925 Z"
         id="path154"
         inkscape:connector-curvature="0" />
    </clipPath>
    <clipPath
       clipPathUnits="userSpaceOnUse"
       id="clipPath132">
      <path
         d="M 43.5903,368.811 H 139.13 V 317.879 H 43.5903 Z"
         id="path130"
         inkscape:connector-curvature="0" />
    </clipPath>
    <clipPath
       clipPathUnits="userSpaceOnUse"
       id="clipPath108">
      <path
         d="m 375.319,478.328 h 95.54 v -50.927 h -95.54 z"
         id="path106"
         inkscape:connector-curvature="0" />
    </clipPath>
    <clipPath
       clipPathUnits="userSpaceOnUse"
       id="clipPath84">
      <path
         d="m 263.985,478.78 h 95.539 v -50.927 h -95.539 z"
         id="path82"
         inkscape:connector-curvature="0" />
    </clipPath>
  </defs>
  <sodipodi:namedview
     id="base"
     pagecolor="#ffffff"
     bordercolor="#666666"
     borderopacity="1.0"
     inkscape:pageopacity="0.0"
     inkscape:pageshadow="2"
     inkscape:zoom="1.01"
     inkscape:cx="-352.36763"
     inkscape:cy="112.51272"
     inkscape:document-units="mm"
     inkscape:current-layer="layer1"
     showgrid="false"
     fit-margin-top="1"
     fit-margin-bottom="1"
     fit-margin-right="1"
     fit-margin-left="1"
     inkscape:window-width="1853"
     inkscape:window-height="1025"
     inkscape:window-x="67"
     inkscape:window-y="27"
     inkscape:window-maximized="1" />
  <metadata
     id="metadata1903">
    <rdf:RDF>
      <cc:Work
         rdf:about="">
        <dc:format>image/svg+xml</dc:format>
        <dc:type
           rdf:resource="http://purl.org/dc/dcmitype/StillImage" />
        <dc:title></dc:title>
      </cc:Work>
    </rdf:RDF>
  </metadata>
  <g
     inkscape:label="Capa 1"
     inkscape:groupmode="layer"
     id="layer1"
     transform="translate(-94.221718,-139.46048)">
    <g
       transform="matrix(0.35277777,0,0,-0.35277777,4.036179,310.85849)"
       id="g3603">
      <g
         transform="translate(363.7617,430.374)"
         id="g70">
        <path
           inkscape:connector-curvature="0"
           id="path72"
           style="fill:#000000;fill-opacity:1;fill-rule:nonzero;stroke:none"
           d="m 0,0 c 0,-29.073 -23.57,-52.64 -52.644,-52.64 -29.073,0 -52.639,23.567 -52.639,52.64 0,29.073 23.566,52.644 52.639,52.644 C -23.57,52.644 0,29.073 0,0" />
      </g>
      <g
         transform="translate(301.2666,416.0547)"
         id="g74">
        <path
           inkscape:connector-curvature="0"
           id="path76"
           style="fill:#ff9900;fill-opacity:1;fill-rule:nonzero;stroke:none"
           d="m 0,0 c 0,0 -5.566,-8.563 -12.703,-3.997 0,0 -5.994,4.71 -6.993,10.42 -0.999,5.709 -1.143,9.134 3.282,10.562 0,0 1.855,2.283 2.997,1.997 1.142,-0.285 0.999,1.428 0,1.999 -0.998,0.571 -3.282,4.567 -0.998,9.134 0,0 0.143,2.141 -0.286,2.427 -0.428,0.285 0.429,2.569 0,4.995 -0.428,2.426 -2.712,8.706 1.998,9.277 4.71,0.571 12.846,-11.418 13.987,-13.987 1.142,-2.569 6.852,-8.849 7.707,-14.844 0,0 0.286,-2.426 0.714,-2.854 0.428,-0.428 1.142,-0.285 1.142,-0.285 0,0 -0.285,2.283 0.571,2.426 0,0 0.143,6.565 -0.571,7.279 -0.714,0.713 -1.142,0.999 -0.285,1.57 0.856,0.571 1.949,-0.344 1.284,-1.142 -0.355,-0.425 -0.087,-2.401 0.071,-4.21 0.161,-1.833 0.215,-3.497 0.215,-3.497 0,0 1.57,0 1.712,-0.999 0,0 7.065,3.568 8.135,3.996 0,0 0.701,1.355 1.428,0.143 0.428,-0.714 0.143,-1.285 -0.714,-1.142 -0.507,0.085 -0.714,0.286 -0.714,0.286 L 13.987,15.7 c 0,0 -0.428,-1.141 -0.999,-1.427 -0.571,-0.286 -0.428,-0.857 0.428,-1.142 0.856,-0.285 7.564,2.14 8.421,1.998 0.856,-0.143 28.974,2.712 30.544,-4.139 0,0 2.568,-3.14 -2.998,-5.566 C 43.816,2.997 39.106,1 37.537,-1.57 c 0,0 -2.854,-2.855 -4.71,-2.855 -1.855,0 -3.568,1.428 -3.568,0.143 0,-1.284 0.285,-2.569 -0.429,-4.71 0,0 1.285,-2.569 -2.141,-4.853 -3.424,-2.283 -6.137,-4.281 -12.274,-3.567 -6.137,0.713 -10.561,4.566 -9.849,8.277 0.714,3.712 1.428,7.137 1.428,7.137 0,0 0.285,2.711 -0.714,0.714 -0.999,-1.999 -3.711,-4.71 -4.71,-4.282 -0.999,0.428 1.428,6.137 1.428,6.137 0,0 0.428,1.57 -0.714,0.714 C 0.143,0.428 0,0 0,0" />
      </g>
      <g
         id="g78">
        <g
           id="g80" />
        <g
           id="g92">
          <g
             style="opacity:0.19999701"
             id="g90"
             clip-path="url(#clipPath84)">
            <g
               id="g88"
               transform="translate(311.1182,478.7803)">
              <path
                 inkscape:connector-curvature="0"
                 id="path86"
                 style="fill:#ffffff;fill-opacity:1;fill-rule:nonzero;stroke:none"
                 d="m 0,0 c -22.926,0 -42.125,-15.938 -47.133,-37.339 7.17,2.391 16.837,4.491 28.687,4.491 2.987,0 6.113,-0.133 9.373,-0.429 21.602,-1.964 39.636,-16.675 57.417,-17.65 0.042,0.833 0.062,1.675 0.062,2.521 C 48.406,-21.67 26.732,0 0,0" />
            </g>
          </g>
        </g>
      </g>
    </g>
  </g>
</svg>
